<?xml version="1.0" standalone="no"?>
<!DOCTYPE svg PUBLIC "-//W3C//DTD SVG 20010904//EN"
 "http://www.w3.org/TR/2001/REC-SVG-20010904/DTD/svg10.dtd">
<svg version="1.0" xmlns="http://www.w3.org/2000/svg"
 width="20px" height="20px" viewBox="0 0 1210.000000 1280.000000"
 preserveAspectRatio="xMidYMid meet">
<g transform="translate(0.000000,1280.000000) scale(0.100000,-0.100000)"
fill="#FFFFFF" stroke="none">
<path d="M11855 12729 c-121 -39 -359 -115 -530 -169 -604 -192 -754 -240
-1165 -370 -228 -73 -439 -139 -467 -149 l-53 -16 -3070 -3630 c-1689 -1996
-3077 -3634 -3084 -3639 -9 -6 -163 111 -521 397 l-508 405 -354 -424 c-194
-233 -353 -428 -353 -432 0 -4 276 -146 612 -316 337 -170 615 -310 617 -312
1 -1 -13 -22 -34 -46 -26 -32 -51 -49 -88 -62 -33 -11 -75 -38 -116 -75 l-64
-57 12 -53 11 -54 -72 -85 c-70 -81 -76 -86 -138 -103 -57 -16 -72 -26 -117
-76 l-52 -58 5 -55 6 -55 -68 -90 c-37 -49 -68 -91 -69 -93 -1 -1 -32 -5 -69
-9 l-67 -6 -55 -66 c-58 -70 -58 -67 -38 -153 6 -24 -3 -37 -65 -101 -68 -70
-74 -74 -144 -91 -69 -16 -77 -21 -122 -72 l-48 -56 13 -54 13 -53 -56 -74
c-58 -77 -75 -87 -151 -87 -25 0 -43 -12 -91 -60 -33 -33 -63 -60 -68 -60 -4
0 -177 136 -383 301 -315 253 -378 299 -389 288 -17 -18 -475 -749 -475 -758
0 -4 128 -105 285 -225 157 -120 287 -222 290 -226 2 -4 -40 -103 -95 -221
-55 -117 -97 -216 -93 -220 5 -3 284 -216 620 -473 l612 -467 201 131 c111 71
206 130 211 130 5 0 135 -97 290 -216 154 -118 284 -214 289 -212 14 5 640
542 640 549 0 4 -158 133 -351 288 -267 214 -345 281 -326 281 18 0 40 17 80
61 46 52 55 69 60 111 6 44 15 60 79 135 40 46 78 91 84 99 8 10 32 14 77 14
l67 0 44 60 c32 45 45 74 50 112 6 46 15 60 78 130 60 67 75 78 103 78 88 0
119 11 178 64 l58 51 -10 60 -9 60 70 72 c67 67 75 73 142 89 61 14 78 23 123
67 52 51 53 52 53 112 l0 60 83 83 c79 78 88 85 154 102 61 16 76 25 121 72
48 49 52 56 52 104 0 41 5 55 26 75 l26 24 36 -40 c21 -22 210 -228 421 -458
211 -230 387 -417 392 -415 19 7 749 782 742 788 -4 4 -223 163 -486 355
l-478 347 459 462 c252 253 1644 1660 3092 3126 1448 1466 2792 2825 2986
3020 l352 355 111 1115 c61 613 111 1118 111 1123 0 13 -21 7 -245 -64z"/>
</g>
</svg>
